<?xml version="1.0" encoding="iso-8859-1"?>
<!-- Generator: Adobe Illustrator 19.0.0, SVG Export Plug-In . SVG Version: 6.00 Build 0)  -->
<svg version="1.1" width="150" height="150" id="Capa_1" xmlns="http://www.w3.org/2000/svg" xmlns:xlink="http://www.w3.org/1999/xlink" x="0px" y="0px"
	 viewBox="0 0 512 512" style="enable-background:new 0 0 512 512;" xml:space="preserve">
<path style="fill:#455A64;" d="M444.885,280.448c-20.352-20.395-39.552-96.661-39.552-131.115c0-5.891-4.776-10.667-10.667-10.667
	H117.333c-5.891,0-10.667,4.776-10.667,10.667c0,34.453-19.2,110.72-39.552,131.115c-4.164,4.165-4.164,10.917,0,15.083
	c23.595,23.595,103.872,33.963,114.219,35.136h150.635c9.067-1.109,89.344-11.456,112.917-35.051
	c4.189-4.143,4.226-10.896,0.083-15.085C444.941,280.503,444.913,280.476,444.885,280.448z"/>
<path style="fill:#FFE082;" d="M401.067,175.509c-1.484-4.305-5.537-7.192-10.091-7.189c-87.936,0-174.507-79.616-177.707-93.653
	c0-5.891-4.776-10.667-10.667-10.667c-5.891,0-10.667,4.776-10.667,10.667c0.064,63.851-74.155,94.101-74.923,94.4
	c-2.88,1.14-5.122,3.476-6.144,6.4c-2.878,8.776-4.298,17.965-4.203,27.2c0,29.76,13.163,52.352,30.827,53.333
	C156.821,320.213,203.435,362.667,256,362.667S355.179,320.213,374.507,256c17.664-0.96,30.827-23.467,30.827-53.333
	C405.403,193.442,403.962,184.268,401.067,175.509z"/>
<path style="fill:#4CAF50;" d="M418.88,354.688l-54.869-19.093c-4.015-1.393-8.473-0.27-11.349,2.859
	C328.333,366.624,293.212,383.172,256,384c-37.201-0.828-72.313-17.368-96.64-45.525c-2.876-3.129-7.335-4.252-11.349-2.859
	l-54.869,19.093C37.383,374.089,0.006,426.645,0,485.675v15.659C0,507.224,4.776,512,10.667,512h490.667
	c5.891,0,10.667-4.776,10.667-10.667v-15.659C512.006,426.642,474.637,374.078,418.88,354.688z"/>
<g>
	<path style="fill:#455A64;" d="M224,213.333h-21.333c-5.891,0-10.667-4.776-10.667-10.667S196.776,192,202.667,192H224
		c5.891,0,10.667,4.776,10.667,10.667S229.891,213.333,224,213.333z"/>
	<path style="fill:#455A64;" d="M309.333,213.333H288c-5.891,0-10.667-4.776-10.667-10.667S282.109,192,288,192h21.333
		c5.891,0,10.667,4.776,10.667,10.667S315.224,213.333,309.333,213.333z"/>
	<path style="fill:#455A64;" d="M256,0c-82.436,0.094-149.239,66.898-149.333,149.333c0.105,10.778,1.407,21.51,3.883,32
		c1.08,4.884,5.409,8.361,10.411,8.363c1.343-0.003,2.674-0.257,3.925-0.747c3.115-1.216,66.944-27.136,84.181-84.8
		c33.28,36.437,109.867,85.504,181.973,85.504c5.002-0.002,9.33-3.479,10.411-8.363c2.473-10.476,3.775-21.194,3.883-31.957
		C405.239,66.898,338.436,0.094,256,0z"/>
</g>
<g>
</g>
<g>
</g>
<g>
</g>
<g>
</g>
<g>
</g>
<g>
</g>
<g>
</g>
<g>
</g>
<g>
</g>
<g>
</g>
<g>
</g>
<g>
</g>
<g>
</g>
<g>
</g>
<g>
</g>
</svg>
