<svg height="3rem" viewBox="0 0 512 512" width="3rem" xmlns="http://www.w3.org/2000/svg">
<rect fill="#353744" height="448" rx="16" width="368" x="72" y="32"/>
<rect fill="#58565c" height="448" rx="16" width="352" x="72" y="32"/>
<rect fill="#353744" height="448" rx="16" width="288" x="72" y="32"/>
<rect fill="#58565c" height="448" rx="16" width="272" x="72" y="32"/>
<path d="m360 56h32a8 8 0 0 1 8 8v384a8 8 0 0 1 -8 8h-32a0 0 0 0 1 0 0v-400a0 0 0 0 1 0 0z" fill="#d7e6f0"/>
<circle cx="208" cy="228" fill="#006a71" r="84"/><rect fill="#353744" height="16" rx="8" width="128" x="144" y="202.667"/>
<path d="m152 202.667h56a0 0 0 0 1 0 0v16a0 0 0 0 1 0 0h-56a8 8 0 0 1 -8-8 8 8 0 0 1 8-8z" fill="#55525b"/>
<path d="m240 250.667-32 16-32-16v-32h64z" fill="#353744"/><path d="m208 266.667-32-16v-24h32z" fill="#55525b"/>
<path d="m256 218.667h8v32h-8z" fill="#353744"/><rect fill="#cbeaed" height="16" rx="4" width="18.667" x="250.667" y="250.667"/><g fill="#353744"><rect height="32" rx="16" width="160" x="128" y="352"/><rect height="32" rx="16" width="80" x="168" y="408"/>
<rect height="32" rx="16" width="80" x="168" y="72"/>
</g>
</svg>